<?xml version="1.0" encoding="UTF-8"?>
<svg version="1.1" xmlns="http://www.w3.org/2000/svg" width="225" height="225">
<path d="M0 0 C0.68281036 0.00054382 1.36562073 0.00108765 2.06912231 0.00164795 C13.11692112 0.04202792 23.38755714 0.94337601 33.9375 4.375 C34.61232422 4.58398926 35.28714844 4.79297852 35.98242188 5.00830078 C50.692998 9.65319651 63.23114775 17.3914694 74.9375 27.375 C75.49695313 27.81328125 76.05640625 28.2515625 76.6328125 28.703125 C94.20488452 42.50318156 105.59934947 65.0948849 110.9375 86.375 C111.12296387 87.08624023 111.30842773 87.79748047 111.49951172 88.53027344 C113.29527477 96.2483701 113.33418087 103.99314465 113.3125 111.875 C113.31228851 112.58298737 113.31207703 113.29097473 113.31185913 114.02041626 C113.27841235 125.24252471 112.40274491 135.64978297 108.9375 146.375 C108.57527344 147.509375 108.21304688 148.64375 107.83984375 149.8125 C97.2086837 179.79597512 75.38799111 202.75865894 46.87109375 216.50683594 C19.8608614 228.63415743 -12.54870514 228.78993766 -40.2421875 218.94140625 C-69.39238038 207.40437056 -91.47387817 185.39475134 -104.15234375 156.93359375 C-110.27143911 142.64581752 -112.45834924 128.7873779 -112.4375 113.3125 C-112.43695618 112.62968964 -112.43641235 111.94687927 -112.43585205 111.24337769 C-112.39547208 100.19557888 -111.49412399 89.92494286 -108.0625 79.375 C-107.85351074 78.70017578 -107.64452148 78.02535156 -107.42919922 77.33007812 C-98.08953258 47.75096911 -76.17184138 24.86877478 -49.125 10.5625 C-33.3633302 3.00260408 -17.41866655 -0.0234681 0 0 Z M-61.0625 45.375 C-61.86429688 46.1071875 -62.66609375 46.839375 -63.4921875 47.59375 C-77.59826881 61.0823934 -88.9223685 81.6127207 -90.0625 101.375 C-89.00352564 102.66761942 -89.00352564 102.66761942 -86.56225586 102.39672852 C-84.93622437 102.32603149 -84.93622437 102.32603149 -83.27734375 102.25390625 C-82.10751953 102.20556641 -80.93769531 102.15722656 -79.73242188 102.10742188 C-78.50072266 102.05134766 -77.26902344 101.99527344 -76 101.9375 C-74.76443359 101.88529297 -73.52886719 101.83308594 -72.25585938 101.77929688 C-69.19117809 101.64913667 -66.12678387 101.51415654 -63.0625 101.375 C-62.78277344 100.43140625 -62.50304687 99.4878125 -62.21484375 98.515625 C-56.60207352 80.27053912 -47.3824161 66.1821859 -30.296875 56.8671875 C-27.56307262 55.56277322 -24.91702142 54.39498682 -22.0625 53.375 C-21.37407516 53.12874878 -20.68565033 52.88249756 -19.97636414 52.62878418 C-11.17532809 49.84564923 -2.4873256 49.89787746 6.63671875 49.86328125 C8.32494893 49.84640409 10.01316678 49.82824985 11.70137024 49.80888367 C16.10871525 49.76170679 20.51601024 49.73168967 24.92352295 49.70544434 C29.43544387 49.67547428 33.94719293 49.62900115 38.45898438 49.58398438 C47.28507115 49.49831967 56.11117416 49.43081219 64.9375 49.375 C63.98643561 48.24680736 63.03271628 47.12085247 62.07788086 45.99584961 C61.54706406 45.36859482 61.01624725 44.74134003 60.46934509 44.09507751 C48.11104769 30.2181982 25.21709059 22.48957587 7.10546875 21.4296875 C6.39003906 21.41164063 5.67460938 21.39359375 4.9375 21.375 C4.17050781 21.33632813 3.40351562 21.29765625 2.61328125 21.2578125 C-21.05411707 20.57180095 -43.72408914 29.50410354 -61.0625 45.375 Z M-33.94140625 87.55859375 C-37.70061472 92.35045226 -40.0625 96.14153024 -40.0625 102.375 C-25.78766124 102.39850965 -11.51282555 102.41600014 2.76202869 102.42681217 C9.39222293 102.43200448 16.02240054 102.43903484 22.65258789 102.45043945 C29.06520909 102.46139931 35.47781777 102.46730426 41.89044762 102.46987724 C44.32252893 102.4717081 46.75460966 102.47528262 49.18668556 102.48073006 C63.14017497 102.51070681 77.01250635 102.30335045 90.9375 101.375 C90.67864014 99.86498413 90.67864014 99.86498413 90.41455078 98.32446289 C90.00292969 95.92333984 89.59130859 93.5222168 89.1796875 91.12109375 C88.21193776 86.7473001 86.54718095 82.71255162 84.85986328 78.57836914 C84.57929581 77.88435249 84.29872833 77.19033585 84.00965881 76.47528839 C83.32151672 74.77414734 82.62986067 73.07442847 81.9375 71.375 C70.2972009 71.25868932 58.6570421 71.17007412 47.01627827 71.11593914 C41.6098445 71.08994518 36.20381094 71.05473498 30.79760742 70.99780273 C25.57152103 70.94311734 20.34581741 70.91350292 15.11946678 70.90061378 C13.13452321 70.89143908 11.14959846 70.87352443 9.16481972 70.84634972 C-8.99505133 70.60780424 -21.51746888 73.11996383 -33.94140625 87.55859375 Z M-89.0625 123.375 C-92.03581463 132.29494388 -84.97061062 146.32775196 -81.10546875 154.484375 C-69.88863231 176.66374798 -50.28712934 192.07657772 -27.08447266 200.05517578 C-10.38396071 205.44550699 9.18412031 205.51547799 25.9375 200.375 C27.06800781 200.04628906 28.19851562 199.71757812 29.36328125 199.37890625 C42.86576708 195.03828511 55.14680233 187.69554719 64.9375 177.375 C64.9375 177.045 64.9375 176.715 64.9375 176.375 C64.05848022 176.37135437 63.17946045 176.36770874 62.27380371 176.36395264 C53.91979936 176.3258145 45.56617522 176.26867444 37.21244049 176.19109726 C32.91944529 176.15187606 28.62664743 176.11956515 24.33349609 176.10400391 C20.17700881 176.08866777 16.02106504 176.05393073 11.86482239 176.00669098 C10.29275789 175.99204945 8.72061572 175.9839691 7.14848328 175.98311615 C-13.72066937 175.96044312 -31.01033863 170.73084127 -46.5625 156.375 C-54.70393966 147.9945198 -59.3642362 138.00217798 -62.37109375 126.82421875 C-62.82661138 124.44808693 -62.82661138 124.44808693 -64.0625 123.375 C-65.91619611 123.28762355 -67.77317541 123.26801847 -69.62890625 123.27734375 C-70.75361328 123.28056641 -71.87832031 123.28378906 -73.03710938 123.28710938 C-74.81311523 123.29967773 -74.81311523 123.29967773 -76.625 123.3125 C-77.81287109 123.31701172 -79.00074219 123.32152344 -80.22460938 123.32617188 C-83.17062226 123.33800325 -86.11653681 123.35448713 -89.0625 123.375 Z M-40.0625 123.375 C-38.55203967 133.11684497 -33.73752745 140.20640772 -26.0625 146.375 C-17.40459278 151.99329663 -9.4302553 154.67714568 0.85449219 154.66552734 C2.15089882 154.67560318 2.15089882 154.67560318 3.47349548 154.68588257 C6.3105148 154.70477535 9.14729683 154.70878116 11.984375 154.7109375 C13.96258643 154.71736734 15.9407969 154.72409584 17.91900635 154.73110962 C22.05458789 154.74305749 26.19008602 154.74679259 30.32568359 154.74560547 C35.63111269 154.74540146 40.93601103 154.77279852 46.24131393 154.80714989 C50.32131425 154.82934556 54.4011848 154.83344541 58.48123932 154.83238602 C60.43812148 154.83474939 62.39500683 154.84361415 64.35182953 154.85905075 C67.08096649 154.87857922 69.80893136 154.87292689 72.53808594 154.86083984 C73.75373482 154.87769836 73.75373482 154.87769836 74.99394226 154.89489746 C79.3610496 154.88523661 79.3610496 154.88523661 82.88018799 152.54995728 C87.00713292 144.06057212 90.15435556 133.81002588 90.9375 124.375 C89.91863483 123.13426342 89.91863483 123.13426342 87.78419399 123.25195217 C86.34757963 123.25333486 86.34757963 123.25333486 84.88194275 123.25474548 C83.78672806 123.25337082 82.69151337 123.25199615 81.56311035 123.25057983 C80.35110962 123.25417511 79.13910889 123.25777039 77.89038086 123.26147461 C76.62227066 123.26132858 75.35416046 123.26118256 74.04762268 123.2610321 C70.56017578 123.26074415 67.07276299 123.26664055 63.58532405 123.27360606 C59.94446277 123.27983993 56.30360078 123.28044342 52.66273499 123.28163147 C45.76373028 123.28474469 38.86474135 123.29295795 31.9657436 123.30298096 C24.11339315 123.31414239 16.26104197 123.31965262 8.40868556 123.32467639 C-7.74838553 123.33514057 -23.90544076 123.35273983 -40.0625 123.375 Z " fill="#000000" transform="translate(112.0625,-0.375)"/>
</svg>
