<svg width="225" height="225" viewBox="0 0 225 225" fill="none" xmlns="http://www.w3.org/2000/svg">
<g clip-path="url(#clip0_1_13)">
<circle cx="112.5" cy="111.5" r="112.5" fill="#29286E"/>
<path d="M109 77C113.117 80.0028 117.071 83.211 121.033 86.4141C132.303 95.4996 143.644 104.426 156 112C156.917 112.568 157.833 113.137 158.777 113.723C167.295 118.321 177.21 118.756 186.493 116.355C193.736 114.096 200.68 111.215 207.434 107.766C211 106 211 106 213 106C212.327 121.508 205.35 135.435 194 146C187.232 151.204 180.128 154.511 172 157C171.348 157.226 170.695 157.451 170.023 157.684C153.193 162.876 134.247 156.717 119.137 149.055C104.631 141.325 92.433 130.678 81.0164 118.972C71.1036 108.906 60.8735 100.741 46.25 100.5C33.2328 100.666 21.6616 105.683 10 111C10 98.9351 17.1152 86.7179 25.3828 78.25C32.8165 71.8593 41.3236 66.1546 51 64C51.727 63.8182 52.4541 63.6365 53.2031 63.4492C73.2362 60.2316 92.3218 65.8318 109 77Z" fill="#F9F8F8"/>
<path d="M68.5 107.187C70.0157 108.44 71.5153 109.711 73 111C73.8031 111.694 74.6062 112.387 75.4336 113.102C79.7316 116.897 83.8237 120.82 87.8125 124.937C106.056 143.266 130.511 157.436 156.75 158.375C171.935 158.109 185.824 152.615 196.93 142.285C199.93 138.973 202.222 135.354 204.492 131.516C205.871 129.216 207.352 127.112 209 125C207.543 135.742 200.155 147.159 193 155C192.211 155.892 191.422 156.784 190.609 157.703C178.399 170.77 162.613 178.62 144.594 179.238C114.732 179.791 90.2001 168.467 68.4141 148.207C65.029 145.112 61.4697 142.255 57.8984 139.379C55.8862 137.727 53.9224 136.065 51.9766 134.34C40.2029 123.956 26.7483 113.896 11 111C14.4023 108.122 18.1392 106.534 22.25 104.937C22.9275 104.674 23.605 104.411 24.303 104.14C26.1975 103.415 28.0985 102.707 30 102C30.7257 101.725 31.4515 101.451 32.1992 101.168C44.6735 97.2715 58.1784 99.4688 68.5 107.187Z" fill="#FD4E0A"/>
<path d="M165 48C165.99 48.33 166.98 48.66 168 49C168.922 51.3984 168.922 51.3984 169.75 54.375C170.985 58.3242 170.985 58.3242 173.637 61.3242C175.692 62.2128 175.692 62.2128 179 63C179.969 63.3919 180.939 63.7837 181.938 64.1875C182.618 64.4556 183.299 64.7237 184 65C184 65.66 184 66.32 184 67C183.241 67.2307 182.481 67.4615 181.699 67.6992C180.705 68.0254 179.711 68.3515 178.688 68.6875C177.701 69.0007 176.715 69.314 175.699 69.6367C172.427 71.2895 171.542 72.7187 170 76C169.278 78.3169 168.599 80.6485 168 83C167.01 83 166.02 83 165 83C164.746 82.2291 164.492 81.4583 164.23 80.6641C163.886 79.6612 163.542 78.6583 163.188 77.625C162.851 76.6273 162.515 75.6295 162.168 74.6016C161.149 71.7154 161.149 71.7154 158 70C156.452 69.4173 154.888 68.8774 153.312 68.375C152.504 68.1146 151.696 67.8542 150.863 67.5859C150.248 67.3926 149.634 67.1992 149 67C149.33 66.01 149.66 65.02 150 64C152.363 63.2539 152.363 63.2539 155.312 62.5625C159.193 61.2977 160.615 60.6968 162.617 57.0742C163.587 54.0614 164.39 51.1047 165 48Z" fill="#F5F5F6"/>
<path d="M52 163C54.7258 164.989 55.8183 166.193 56.5625 169.5C56 172 56 172 53.875 174.375C51 176 51 176 47.8125 175.937C45 175 45 175 43 172C43.1875 168.437 43.1875 168.437 44 165C47.2483 162.834 48.2309 162.448 52 163Z" fill="#F1F1F4"/>
</g>
<defs>
<clipPath id="clip0_1_13">
<rect width="225" height="225" fill="white"/>
</clipPath>
</defs>
</svg>
